<svg width="738" height="217" viewBox="0 0 738 217" fill="none" xmlns="http://www.w3.org/2000/svg">
<path id="Layer3" d="M545.812 69.9984C453.562 69.9979 465.094 181.467 369 181.467C272.906 181.467 284.438 69.9979 192.188 69.9984C99.9375 69.9979 73.0312 162.248 69.1875 185.311C65.3438 208.373 53.8125 216.061 30.75 216.061C15.375 216.061 0 202.003 0 185.311C0 123.81 65.3438 0.810167 192.188 0.810852C319.031 0.810383 330.562 112.28 369 112.28C407.438 112.28 418.969 0.810383 545.812 0.810852C672.656 0.810167 738 123.81 738 185.311C738 202.003 722.625 216.061 707.25 216.061C684.188 216.061 672.656 208.373 668.812 185.311C664.969 162.248 638.062 69.9979 545.812 69.9984Z" fill="#F7E652"/>
</svg>
