<svg width="738" height="216" viewBox="0 0 738 216" fill="none" xmlns="http://www.w3.org/2000/svg">
<path id="Layer6" d="M545.812 69.9392C453.562 69.9387 465.094 181.407 369 181.408C272.906 181.407 284.438 69.9387 192.188 69.9392C99.9375 69.9387 73.0312 162.189 69.1875 185.252C65.3438 208.314 53.8125 216.002 30.75 216.002C15.375 216.002 0 201.944 0 185.252C0 123.751 65.3438 0.750963 192.188 0.751648C319.031 0.751179 330.562 112.22 369 112.22C407.438 112.22 418.969 0.751179 545.812 0.751648C672.656 0.750963 738 123.751 738 185.252C738 201.944 722.625 216.002 707.25 216.002C684.188 216.002 672.656 208.314 668.812 185.252C664.969 162.189 638.062 69.9387 545.812 69.9392Z" fill="#AE2FF8"/>
</svg>
