<svg width="738" height="216" viewBox="0 0 738 216" fill="none" xmlns="http://www.w3.org/2000/svg">
<path id="Layer1" d="M545.812 69.1875C453.562 69.187 465.094 180.656 369 180.656C272.906 180.656 284.438 69.187 192.188 69.1875C99.9375 69.187 73.0312 161.438 69.1875 184.5C65.3438 207.563 53.8125 215.25 30.75 215.25C15.375 215.25 0 201.192 0 184.5C0 122.999 65.3438 -0.000685449 192.188 0C319.031 -0.000469205 330.562 111.469 369 111.469C407.438 111.469 418.969 -0.000469205 545.812 0C672.656 -0.000685449 738 122.999 738 184.5C738 201.192 722.625 215.25 707.25 215.25C684.188 215.25 672.656 207.563 668.812 184.5C664.969 161.438 638.062 69.187 545.812 69.1875Z" fill="#9BA0FA"/>
</svg>
