<svg width="738" height="216" viewBox="0 0 738 216" fill="none" xmlns="http://www.w3.org/2000/svg">
<path id="Layer4" d="M545.812 69.7517C453.562 69.7512 465.094 181.22 369 181.22C272.906 181.22 284.438 69.7512 192.188 69.7517C99.9375 69.7512 73.0312 162.002 69.1875 185.064C65.3438 208.127 53.8125 215.814 30.75 215.814C15.375 215.814 0 201.756 0 185.064C0 123.563 65.3438 0.563463 192.188 0.564148C319.031 0.563679 330.562 112.033 369 112.033C407.438 112.033 418.969 0.563679 545.812 0.564148C672.656 0.563463 738 123.563 738 185.064C738 201.756 722.625 215.814 707.25 215.814C684.188 215.814 672.656 208.127 668.812 185.064C664.969 162.002 638.062 69.7512 545.812 69.7517Z" fill="#9DCFCE"/>
</svg>
