<svg width="738" height="216" viewBox="0 0 738 216" fill="none" xmlns="http://www.w3.org/2000/svg">
<path id="Layer2" d="M545.812 69.25C453.562 69.2495 465.094 180.718 369 180.719C272.906 180.718 284.438 69.2495 192.188 69.25C99.9375 69.2495 73.0312 161.5 69.1875 184.563C65.3438 207.625 53.8125 215.313 30.75 215.313C15.375 215.313 0 201.254 0 184.563C0 123.062 65.3438 0.0618146 192.188 0.0625C319.031 0.0620308 330.562 111.531 369 111.531C407.438 111.531 418.969 0.0620308 545.812 0.0625C672.656 0.0618146 738 123.062 738 184.563C738 201.254 722.625 215.313 707.25 215.313C684.188 215.313 672.656 207.625 668.812 184.563C664.969 161.5 638.062 69.2495 545.812 69.25Z" fill="#F72F56"/>
</svg>
