<svg width="738" height="216" viewBox="0 0 738 216" fill="none" xmlns="http://www.w3.org/2000/svg">
<path id="Layer5" d="M545.812 69.5C453.562 69.4995 465.094 180.968 369 180.969C272.906 180.968 284.438 69.4995 192.188 69.5C99.9375 69.4995 73.0312 161.75 69.1875 184.813C65.3438 207.875 53.8125 215.563 30.75 215.563C15.375 215.563 0 201.504 0 184.813C0 123.312 65.3438 0.311815 192.188 0.3125C319.031 0.312031 330.562 111.781 369 111.781C407.438 111.781 418.969 0.312031 545.812 0.3125C672.656 0.311815 738 123.312 738 184.813C738 201.504 722.625 215.563 707.25 215.563C684.188 215.563 672.656 207.875 668.812 184.813C664.969 161.75 638.062 69.4995 545.812 69.5Z" fill="#3C6CBE"/>
</svg>
