<svg width="726" height="202" viewBox="0 0 726 202" fill="none" xmlns="http://www.w3.org/2000/svg">
<path id="Vector" d="M186.188 55.18C284.46 55.1795 269.88 166.66 363 166.66C456.12 166.66 441.54 55.1795 539.812 55.18C638.04 55.1795 667.98 150.46 668.82 176.5C675.66 196.54 681.18 201.28 701.25 201.28C716.625 201.28 724.5 188.68 726 176.5C723 118 660.66 0.279344 539.812 0.280029C415.98 0.27956 407.46 109.48 363 109.48C318.54 109.48 310.02 0.27956 186.188 0.280029C65.34 0.279344 3 118 0 176.5C1.5 188.68 9.375 201.28 24.75 201.28C44.82 201.28 50.34 196.54 57.18 176.5C58.02 150.46 87.96 55.1795 186.188 55.18Z" fill="white"/>
</svg>
