<?xml version="1.0" encoding="UTF-8"?>
<!--Generator: Apple Native CoreSVG 232.5-->
<!DOCTYPE svg
PUBLIC "-//W3C//DTD SVG 1.1//EN"
       "http://www.w3.org/Graphics/SVG/1.1/DTD/svg11.dtd">
<svg version="1.1" xmlns="http://www.w3.org/2000/svg" xmlns:xlink="http://www.w3.org/1999/xlink" width="3300" height="2200">
 <!--glyph: "", point size: 100.0, font version: "19.2d2e1", template writer version: "128"-->
 <style>.monochrome-0 {-sfsymbols-variable-threshold:0.0;-sfsymbols-motion-group:5}
.monochrome-1 {-sfsymbols-variable-threshold:0.15;-sfsymbols-motion-group:4}
.monochrome-2 {-sfsymbols-variable-threshold:0.3;-sfsymbols-motion-group:3}
.monochrome-3 {-sfsymbols-variable-threshold:0.44;-sfsymbols-motion-group:2}
.monochrome-4 {-sfsymbols-variable-threshold:0.58;-sfsymbols-motion-group:1}
.monochrome-5 {-sfsymbols-variable-threshold:0.72;-sfsymbols-motion-group:0}
.monochrome-6 {-sfsymbols-variable-threshold:0.87;-sfsymbols-motion-group:0}

.multicolor-0:custom {fill:#901DBD;-sfsymbols-variable-threshold:0.0;-sfsymbols-motion-group:5}
.multicolor-1:custom {fill:#274F9F;-sfsymbols-variable-threshold:0.15;-sfsymbols-motion-group:4}
.multicolor-2:custom {fill:#559B9A;-sfsymbols-variable-threshold:0.3;-sfsymbols-motion-group:3}
.multicolor-3:custom {fill:#DAA520;-sfsymbols-variable-threshold:0.44;-sfsymbols-motion-group:2}
.multicolor-4:custom {fill:#B8193E;-sfsymbols-variable-threshold:0.58;-sfsymbols-motion-group:1}
.multicolor-5:custom {fill:#9BA0FA;-sfsymbols-variable-threshold:0.72;-sfsymbols-motion-group:0}
.multicolor-6:custom {fill:#0C0F30;-sfsymbols-variable-threshold:0.87;-sfsymbols-motion-group:0}

.hierarchical-0:primary {-sfsymbols-variable-threshold:0.0;-sfsymbols-motion-group:5}
.hierarchical-1:primary {-sfsymbols-variable-threshold:0.15;-sfsymbols-motion-group:4}
.hierarchical-2:primary {-sfsymbols-variable-threshold:0.3;-sfsymbols-motion-group:3}
.hierarchical-3:primary {-sfsymbols-variable-threshold:0.44;-sfsymbols-motion-group:2}
.hierarchical-4:primary {-sfsymbols-variable-threshold:0.58;-sfsymbols-motion-group:1}
.hierarchical-5:secondary {-sfsymbols-variable-threshold:0.72;-sfsymbols-motion-group:0}
.hierarchical-6:secondary {-sfsymbols-variable-threshold:0.87;-sfsymbols-motion-group:0}

.SFSymbolsPreviewWireframe {fill:none;opacity:1.0;stroke:black;stroke-width:0.5}
</style>
 <g id="Notes">
  <rect height="2200" id="artboard" style="fill:white;opacity:1" width="3300" x="0" y="0"/>
  <line style="fill:none;stroke:black;opacity:1;stroke-width:0.5;" x1="263" x2="3036" y1="292" y2="292"/>
  <text style="stroke:none;fill:black;font-family:sans-serif;font-size:13;font-weight:bold;" transform="matrix(1 0 0 1 263 322)">Weight/Scale Variations</text>
  <text style="stroke:none;fill:black;font-family:sans-serif;font-size:13;text-anchor:middle;" transform="matrix(1 0 0 1 559.711 322)">Ultralight</text>
  <text style="stroke:none;fill:black;font-family:sans-serif;font-size:13;text-anchor:middle;" transform="matrix(1 0 0 1 856.422 322)">Thin</text>
  <text style="stroke:none;fill:black;font-family:sans-serif;font-size:13;text-anchor:middle;" transform="matrix(1 0 0 1 1153.13 322)">Light</text>
  <text style="stroke:none;fill:black;font-family:sans-serif;font-size:13;text-anchor:middle;" transform="matrix(1 0 0 1 1449.84 322)">Regular</text>
  <text style="stroke:none;fill:black;font-family:sans-serif;font-size:13;text-anchor:middle;" transform="matrix(1 0 0 1 1746.56 322)">Medium</text>
  <text style="stroke:none;fill:black;font-family:sans-serif;font-size:13;text-anchor:middle;" transform="matrix(1 0 0 1 2043.27 322)">Semibold</text>
  <text style="stroke:none;fill:black;font-family:sans-serif;font-size:13;text-anchor:middle;" transform="matrix(1 0 0 1 2339.98 322)">Bold</text>
  <text style="stroke:none;fill:black;font-family:sans-serif;font-size:13;text-anchor:middle;" transform="matrix(1 0 0 1 2636.69 322)">Heavy</text>
  <text style="stroke:none;fill:black;font-family:sans-serif;font-size:13;text-anchor:middle;" transform="matrix(1 0 0 1 2933.4 322)">Black</text>
  <line style="fill:none;stroke:black;opacity:1;stroke-width:0.5;" x1="263" x2="3036" y1="1903" y2="1903"/>
  <g transform="matrix(0.2 0 0 0.2 263 1933)">
   <path d="m46.2402 4.15039c21.5332 0 39.4531-17.8711 39.4531-39.4043s-17.9688-39.4043-39.502-39.4043c-21.4844 0-39.3555 17.8711-39.3555 39.4043s17.9199 39.4043 39.4043 39.4043Zm0-7.42188c-17.7246 0-31.8848-14.209-31.8848-31.9824s14.1113-31.9824 31.8359-31.9824c17.7734 0 32.0312 14.209 32.0312 31.9824s-14.209 31.9824-31.9824 31.9824Zm-17.9688-31.9824c0 2.14844 1.51367 3.61328 3.75977 3.61328h10.498v10.5957c0 2.19727 1.46484 3.71094 3.61328 3.71094 2.24609 0 3.71094-1.51367 3.71094-3.71094v-10.5957h10.5957c2.19727 0 3.71094-1.46484 3.71094-3.61328 0-2.19727-1.51367-3.71094-3.71094-3.71094h-10.5957v-10.5469c0-2.24609-1.46484-3.75977-3.71094-3.75977-2.14844 0-3.61328 1.51367-3.61328 3.75977v10.5469h-10.498c-2.24609 0-3.75977 1.51367-3.75977 3.71094Z"/>
  </g>
  <g transform="matrix(0.2 0 0 0.2 281.506 1933)">
   <path d="m58.5449 14.5508c27.2461 0 49.8047-22.6074 49.8047-49.8047 0-27.2461-22.6074-49.8047-49.8535-49.8047-27.1973 0-49.7559 22.5586-49.7559 49.8047 0 27.1973 22.6074 49.8047 49.8047 49.8047Zm0-8.30078c-23.0469 0-41.4551-18.457-41.4551-41.5039s18.3594-41.5039 41.4062-41.5039 41.5527 18.457 41.5527 41.5039-18.457 41.5039-41.5039 41.5039Zm-22.6562-41.5039c0 2.39258 1.66016 4.00391 4.15039 4.00391h14.3555v14.4043c0 2.44141 1.66016 4.15039 4.05273 4.15039 2.44141 0 4.15039-1.66016 4.15039-4.15039v-14.4043h14.4043c2.44141 0 4.15039-1.61133 4.15039-4.00391 0-2.44141-1.70898-4.15039-4.15039-4.15039h-14.4043v-14.3555c0-2.49023-1.70898-4.19922-4.15039-4.19922-2.39258 0-4.05273 1.70898-4.05273 4.19922v14.3555h-14.3555c-2.49023 0-4.15039 1.70898-4.15039 4.15039Z"/>
  </g>
  <g transform="matrix(0.2 0 0 0.2 304.924 1933)">
   <path d="m74.8535 28.3203c34.8145 0 63.623-28.8086 63.623-63.5742 0-34.8145-28.8574-63.623-63.6719-63.623-34.7656 0-63.5254 28.8086-63.5254 63.623 0 34.7656 28.8086 63.5742 63.5742 63.5742Zm0-9.08203c-30.1758 0-54.4434-24.3164-54.4434-54.4922 0-30.2246 24.2188-54.4922 54.3945-54.4922 30.2246 0 54.541 24.2676 54.541 54.4922 0 30.1758-24.2676 54.4922-54.4922 54.4922Zm-28.8574-54.4922c0 2.58789 1.85547 4.39453 4.58984 4.39453h19.7266v19.7754c0 2.68555 1.85547 4.58984 4.44336 4.58984 2.68555 0 4.54102-1.85547 4.54102-4.58984v-19.7754h19.7754c2.68555 0 4.58984-1.80664 4.58984-4.39453 0-2.73438-1.85547-4.58984-4.58984-4.58984h-19.7754v-19.7266c0-2.73438-1.85547-4.63867-4.54102-4.63867-2.58789 0-4.44336 1.9043-4.44336 4.63867v19.7266h-19.7266c-2.73438 0-4.58984 1.85547-4.58984 4.58984Z"/>
  </g>
  <text style="stroke:none;fill:black;font-family:sans-serif;font-size:13;font-weight:bold;" transform="matrix(1 0 0 1 263 1953)">Design Variations</text>
  <text style="stroke:none;fill:black;font-family:sans-serif;font-size:13;" transform="matrix(1 0 0 1 263 1971)">Symbols are supported in up to nine weights and three scales.</text>
  <text style="stroke:none;fill:black;font-family:sans-serif;font-size:13;" transform="matrix(1 0 0 1 263 1989)">For optimal layout with text and other symbols, vertically align</text>
  <text style="stroke:none;fill:black;font-family:sans-serif;font-size:13;" transform="matrix(1 0 0 1 263 2007)">symbols with the adjacent text.</text>
  <line style="fill:none;stroke:#00AEEF;stroke-width:0.5;opacity:1.0;" x1="776" x2="776" y1="1919" y2="1933"/>
  <g transform="matrix(0.2 0 0 0.2 776 1933)">
   <path d="m16.5527 0.78125c2.58789 0 3.85742-0.976562 4.78516-3.71094l6.29883-17.2363h28.8086l6.29883 17.2363c0.927734 2.73438 2.19727 3.71094 4.73633 3.71094 2.58789 0 4.24805-1.5625 4.24805-4.00391 0-0.830078-0.146484-1.61133-0.537109-2.63672l-22.9004-60.9863c-1.12305-2.97852-3.125-4.49219-6.25-4.49219-3.02734 0-5.07812 1.46484-6.15234 4.44336l-22.9004 61.084c-0.390625 1.02539-0.537109 1.80664-0.537109 2.63672 0 2.44141 1.5625 3.95508 4.10156 3.95508Zm13.4766-28.3691 11.8652-32.8613h0.244141l11.8652 32.8613Z"/>
  </g>
  <line style="fill:none;stroke:#00AEEF;stroke-width:0.5;opacity:1.0;" x1="792.836" x2="792.836" y1="1919" y2="1933"/>
  <text style="stroke:none;fill:black;font-family:sans-serif;font-size:13;font-weight:bold;" transform="matrix(1 0 0 1 776 1953)">Margins</text>
  <text style="stroke:none;fill:black;font-family:sans-serif;font-size:13;" transform="matrix(1 0 0 1 776 1971)">Leading and trailing margins on the left and right side of each symbol</text>
  <text style="stroke:none;fill:black;font-family:sans-serif;font-size:13;" transform="matrix(1 0 0 1 776 1989)">can be adjusted by modifying the x-location of the margin guidelines.</text>
  <text style="stroke:none;fill:black;font-family:sans-serif;font-size:13;" transform="matrix(1 0 0 1 776 2007)">Modifications are automatically applied proportionally to all</text>
  <text style="stroke:none;fill:black;font-family:sans-serif;font-size:13;" transform="matrix(1 0 0 1 776 2025)">scales and weights.</text>
  <g transform="matrix(0.2 0 0 0.2 1289 1933)">
   <path d="m14.209 9.32617 8.49609 8.54492c4.29688 4.3457 9.22852 4.05273 13.8672-1.07422l53.4668-58.9355-4.83398-4.88281-53.0762 58.3984c-1.75781 2.00195-3.41797 2.49023-5.76172 0.146484l-5.85938-5.81055c-2.34375-2.29492-1.80664-4.00391 0.195312-5.81055l57.373-54.0039-4.88281-4.83398-57.959 54.4434c-4.93164 4.58984-5.32227 9.47266-1.02539 13.8184Zm32.0801-90.9668c-2.09961 2.05078-2.24609 4.93164-1.07422 6.88477 1.17188 1.80664 3.4668 2.97852 6.68945 2.14844 7.32422-1.70898 14.9414-2.00195 22.0703 2.68555l-2.92969 7.27539c-1.70898 4.15039-0.830078 7.08008 1.85547 9.81445l11.4746 11.5723c2.44141 2.44141 4.49219 2.53906 7.32422 2.05078l5.32227-0.976562 3.32031 3.36914-0.195312 2.7832c-0.195312 2.49023 0.439453 4.39453 2.88086 6.78711l3.80859 3.71094c2.39258 2.39258 5.46875 2.53906 7.8125 0.195312l14.5508-14.5996c2.34375-2.34375 2.24609-5.32227-0.146484-7.71484l-3.85742-3.80859c-2.39258-2.39258-4.24805-3.17383-6.64062-2.97852l-2.88086 0.244141-3.22266-3.17383 1.2207-5.61523c0.634766-2.83203-0.146484-5.0293-3.07617-7.95898l-10.9863-10.9375c-16.6992-16.6016-38.8672-16.2109-53.3203-1.75781Zm7.4707 1.85547c12.1582-8.88672 28.6133-7.37305 39.7461 3.75977l12.1582 12.0605c1.17188 1.17188 1.36719 2.09961 1.02539 3.80859l-1.61133 7.42188 7.51953 7.42188 4.93164-0.292969c1.26953-0.0488281 1.66016 0.0488281 2.63672 1.02539l2.88086 2.88086-12.207 12.207-2.88086-2.88086c-0.976562-0.976562-1.12305-1.36719-1.07422-2.68555l0.341797-4.88281-7.4707-7.42188-7.61719 1.26953c-1.61133 0.341797-2.34375 0.195312-3.56445-0.976562l-10.0098-10.0098c-1.26953-1.17188-1.41602-2.00195-0.634766-3.85742l4.39453-10.4492c-7.8125-7.27539-17.9688-10.4004-28.125-7.42188-0.78125 0.195312-1.07422-0.439453-0.439453-0.976562Z"/>
  </g>
  <text style="stroke:none;fill:black;font-family:sans-serif;font-size:13;font-weight:bold;" transform="matrix(1 0 0 1 1289 1953)">Exporting</text>
  <text style="stroke:none;fill:black;font-family:sans-serif;font-size:13;" transform="matrix(1 0 0 1 1289 1971)">Symbols should be outlined when exporting to ensure the</text>
  <text style="stroke:none;fill:black;font-family:sans-serif;font-size:13;" transform="matrix(1 0 0 1 1289 1989)">design is preserved when submitting to Xcode.</text>
  <text id="template-version" style="stroke:none;fill:black;font-family:sans-serif;font-size:13;text-anchor:end;" transform="matrix(1 0 0 1 3036 1933)">Template v.5.0</text>
  <text style="stroke:none;fill:black;font-family:sans-serif;font-size:13;text-anchor:end;" transform="matrix(1 0 0 1 3036 1951)">Requires Xcode 15 or greater</text>
  <text id="descriptive-name" style="stroke:none;fill:black;font-family:sans-serif;font-size:13;text-anchor:end;" transform="matrix(1 0 0 1 3036 1969)">Generated from MoodSymbol</text>
  <text style="stroke:none;fill:black;font-family:sans-serif;font-size:13;text-anchor:end;" transform="matrix(1 0 0 1 3036 1987)">Typeset at 100.0 points</text>
  <text style="stroke:none;fill:black;font-family:sans-serif;font-size:13;" transform="matrix(1 0 0 1 263 726)">Small</text>
  <text style="stroke:none;fill:black;font-family:sans-serif;font-size:13;" transform="matrix(1 0 0 1 263 1156)">Medium</text>
  <text style="stroke:none;fill:black;font-family:sans-serif;font-size:13;" transform="matrix(1 0 0 1 263 1586)">Large</text>
 </g>
 <g id="Guides">
  <g id="H-reference" style="fill:#27AAE1;stroke:none;" transform="matrix(1 0 0 1 339 696)">
   <path d="M0.993654 0L3.63775 0L29.3281-67.1323L30.0303-67.1323L30.0303-70.459L28.1226-70.459ZM11.6885-24.4799L46.9815-24.4799L46.2315-26.7285L12.4385-26.7285ZM55.1196 0L57.7637 0L30.6382-70.459L29.4326-70.459L29.4326-67.1323Z"/>
  </g>
  <line id="Baseline-S" style="fill:none;stroke:#27AAE1;opacity:1;stroke-width:0.5;" x1="263" x2="3036" y1="696" y2="696"/>
  <line id="Capline-S" style="fill:none;stroke:#27AAE1;opacity:1;stroke-width:0.5;" x1="263" x2="3036" y1="625.541" y2="625.541"/>
  <g id="H-reference" style="fill:#27AAE1;stroke:none;" transform="matrix(1 0 0 1 339 1126)">
   <path d="M0.993654 0L3.63775 0L29.3281-67.1323L30.0303-67.1323L30.0303-70.459L28.1226-70.459ZM11.6885-24.4799L46.9815-24.4799L46.2315-26.7285L12.4385-26.7285ZM55.1196 0L57.7637 0L30.6382-70.459L29.4326-70.459L29.4326-67.1323Z"/>
  </g>
  <line id="Baseline-M" style="fill:none;stroke:#27AAE1;opacity:1;stroke-width:0.5;" x1="263" x2="3036" y1="1126" y2="1126"/>
  <line id="Capline-M" style="fill:none;stroke:#27AAE1;opacity:1;stroke-width:0.5;" x1="263" x2="3036" y1="1055.54" y2="1055.54"/>
  <g id="H-reference" style="fill:#27AAE1;stroke:none;" transform="matrix(1 0 0 1 339 1556)">
   <path d="M0.993654 0L3.63775 0L29.3281-67.1323L30.0303-67.1323L30.0303-70.459L28.1226-70.459ZM11.6885-24.4799L46.9815-24.4799L46.2315-26.7285L12.4385-26.7285ZM55.1196 0L57.7637 0L30.6382-70.459L29.4326-70.459L29.4326-67.1323Z"/>
  </g>
  <line id="Baseline-L" style="fill:none;stroke:#27AAE1;opacity:1;stroke-width:0.5;" x1="263" x2="3036" y1="1556" y2="1556"/>
  <line id="Capline-L" style="fill:none;stroke:#27AAE1;opacity:1;stroke-width:0.5;" x1="263" x2="3036" y1="1485.54" y2="1485.54"/>
  <line id="left-margin-Ultralight-S" style="fill:none;stroke:#FF3B30;stroke-width:0.5;opacity:1.0;" x1="498.017" x2="498.017" y1="600.785" y2="720.121"/>
  <line id="right-margin-Ultralight-S" style="fill:none;stroke:#00AEEF;stroke-width:0.5;opacity:1.0;" x1="621.405" x2="621.405" y1="600.785" y2="720.121"/>
  <line id="left-margin-Regular-S" style="fill:none;stroke:#00AEEF;stroke-width:0.5;opacity:1.0;" x1="1386.86" x2="1386.86" y1="600.785" y2="720.121"/>
  <line id="right-margin-Regular-S" style="fill:none;stroke:#00AEEF;stroke-width:0.5;opacity:1.0;" x1="1512.83" x2="1512.83" y1="600.785" y2="720.121"/>
  <line id="left-margin-Black-S" style="fill:none;stroke:#00AEEF;stroke-width:0.5;opacity:1.0;" x1="2867.19" x2="2867.19" y1="600.785" y2="720.121"/>
  <line id="right-margin-Black-S" style="fill:none;stroke:#00AEEF;stroke-width:0.5;opacity:1.0;" x1="2999.61" x2="2999.61" y1="600.785" y2="720.121"/>
 </g>
 <g id="Symbols">
  <g id="Black-S" transform="matrix(1 0 0 1 2867.19 696)">
   <path class="monochrome-0 multicolor-0:custom hierarchical-0:primary SFSymbolsPreviewWireframe" d="M97.7-28.642C81.32-28.642 83.37-8.855 66.31-8.855C49.25-8.855 51.3-28.642 34.92-28.642C18.55-28.642 13.77-12.267 13.09-8.173C12.41-4.079 10.36-2.715 6.27-2.715C3.54-2.715 0.81-5.21 0.81-8.173C0.81-19.09 12.41-40.923 34.92-40.923C57.44-40.923 59.49-21.137 66.31-21.137C73.13-21.137 75.18-40.923 97.7-40.923C120.21-40.923 131.81-19.09 131.81-8.173C131.81-5.21 129.08-2.715 126.35-2.715C122.26-2.715 120.21-4.079 119.53-8.173C118.85-12.267 114.07-28.642 97.7-28.642Z"/>
   <path class="monochrome-1 multicolor-1:custom hierarchical-1:primary SFSymbolsPreviewWireframe" d="M97.7-35.465C81.32-35.465 83.37-15.679 66.31-15.679C49.25-15.679 51.3-35.465 34.92-35.465C18.55-35.465 13.77-19.09 13.09-14.996C12.41-10.903 10.36-9.538 6.27-9.538C3.54-9.538 0.81-12.033 0.81-14.996C0.81-25.913 12.41-47.746 34.92-47.746C57.44-47.746 59.49-27.96 66.31-27.96C73.13-27.96 75.18-47.746 97.7-47.746C120.21-47.746 131.81-25.913 131.81-14.996C131.81-12.033 129.08-9.538 126.35-9.538C122.26-9.538 120.21-10.903 119.53-14.996C118.85-19.09 114.07-35.465 97.7-35.465Z"/>
   <path class="monochrome-2 multicolor-2:custom hierarchical-2:primary SFSymbolsPreviewWireframe" d="M97.7-40.923C81.32-40.923 83.37-21.137 66.31-21.137C49.25-21.137 51.3-40.923 34.92-40.923C18.55-40.923 13.77-24.548 13.09-20.454C12.41-16.361 10.36-14.996 6.27-14.996C3.54-14.996 0.81-17.491 0.81-20.454C0.81-31.371 12.41-53.204 34.92-53.204C57.44-53.204 59.49-33.418 66.31-33.418C73.13-33.418 75.18-53.204 97.7-53.204C120.21-53.204 131.81-31.371 131.81-20.454C131.81-17.491 129.08-14.996 126.35-14.996C122.26-14.996 120.21-16.361 119.53-20.454C118.85-24.548 114.07-40.923 97.7-40.923Z"/>
   <path class="monochrome-3 multicolor-3:custom hierarchical-3:primary SFSymbolsPreviewWireframe" d="M97.7-46.382C81.32-46.382 83.37-26.596 66.31-26.596C49.25-26.596 51.3-46.382 34.92-46.382C18.55-46.382 13.77-30.007 13.09-25.913C12.41-21.819 10.36-20.455 6.27-20.455C3.54-20.455 0.81-22.95 0.81-25.913C0.81-36.83 12.41-58.663 34.92-58.663C57.44-58.663 59.49-38.877 66.31-38.877C73.13-38.877 75.18-58.663 97.7-58.663C120.21-58.663 131.81-36.83 131.81-25.913C131.81-22.95 129.08-20.455 126.35-20.455C122.26-20.455 120.21-21.819 119.53-25.913C118.85-30.007 114.07-46.382 97.7-46.382Z"/>
   <path class="monochrome-4 multicolor-4:custom hierarchical-4:primary SFSymbolsPreviewWireframe" d="M97.7-51.84C81.32-51.84 83.37-32.054 66.31-32.054C49.25-32.054 51.3-51.84 34.92-51.84C18.55-51.84 13.77-35.465 13.09-31.371C12.41-27.277 10.36-25.913 6.27-25.913C3.54-25.913 0.81-28.408 0.81-31.371C0.81-42.288 12.41-64.121 34.92-64.121C57.44-64.121 59.49-44.335 66.31-44.335C73.13-44.335 75.18-64.121 97.7-64.121C120.21-64.121 131.81-42.288 131.81-31.371C131.81-28.408 129.08-25.913 126.35-25.913C122.26-25.913 120.21-27.277 119.53-31.371C118.85-35.465 114.07-51.84 97.7-51.84Z"/>
   <path class="monochrome-5 multicolor-5:custom hierarchical-5:secondary SFSymbolsPreviewWireframe" d="M97.7-55.934C81.32-55.934 83.37-36.147 66.31-36.147C49.25-36.147 51.3-55.934 34.92-55.934C18.55-55.934 13.77-39.559 13.09-35.465C12.41-31.371 10.36-30.007 6.27-30.007C3.54-30.007 0.81-32.502 0.81-35.465C0.81-46.382 12.41-68.215 34.92-68.215C57.44-68.215 59.49-48.429 66.31-48.429C73.13-48.429 75.18-68.215 97.7-68.215C120.21-68.215 131.81-46.382 131.81-35.465C131.81-32.502 129.08-30.007 126.35-30.007C122.26-30.007 120.21-31.371 119.53-35.465C118.85-39.559 114.07-55.934 97.7-55.934Z"/>
   <path class="monochrome-6 multicolor-6:custom hierarchical-6:secondary SFSymbolsPreviewWireframe" d="M66.31-37.312C62.2-37.312 59.28-38.541 56.95-40.382C54.67-42.179 52.94-44.559 51.18-46.969C51.14-47.035 51.09-47.1 51.04-47.165C49.24-49.637 47.41-52.123 44.92-53.988C42.44-55.856 39.31-57.1 34.92-57.1C26.17-57.1 20.45-52.851 16.91-48.025C13.38-43.214 12.01-37.824 11.93-35.483C11.32-33.713 10.78-32.644 9.97-32.011C9.15-31.377 8.05-31.166 6.27-31.166C4.93-31.166 3.93-31.712 3.22-32.521C2.52-33.33 2.11-34.406 1.98-35.469C2.24-40.636 5.13-48.43 10.63-54.935C16.13-61.44 24.24-66.645 34.92-66.645C45.88-66.645 51.73-61.82 55.82-56.989C56.85-55.78 57.77-54.57 58.63-53.434L58.64-53.424C59.49-52.293 60.29-51.233 61.09-50.324C62.69-48.503 64.29-47.261 66.31-47.261C68.33-47.261 69.93-48.503 71.53-50.324C72.33-51.233 73.13-52.293 73.98-53.424L73.99-53.434C74.85-54.57 75.77-55.78 76.8-56.989C80.9-61.82 86.74-66.645 97.7-66.645C108.39-66.645 116.49-61.44 121.99-54.935C127.49-48.43 130.38-40.636 130.64-35.468C130.51-34.406 130.1-33.33 129.4-32.521C128.69-31.712 127.69-31.166 126.35-31.166C124.57-31.166 123.47-31.377 122.65-32.011C121.84-32.644 121.3-33.713 120.69-35.483C120.61-37.824 119.24-43.214 115.71-48.025C112.17-52.851 106.45-57.1 97.7-57.1C93.31-57.1 90.18-55.856 87.7-53.988C85.21-52.123 83.38-49.637 81.58-47.165L81.44-46.969C79.68-44.559 77.95-42.179 75.67-40.382C73.34-38.541 70.42-37.312 66.31-37.312Z"/>
  </g>
  <g id="Regular-S" transform="matrix(1 0 0 1 1386.86 696)">
   <path class="monochrome-0 multicolor-0:custom hierarchical-0:primary SFSymbolsPreviewWireframe" d="M92.59-28.454C76.96-28.454 78.92-9.574 62.64-9.574C46.36-9.574 48.32-28.454 32.69-28.454C17.07-28.454 12.51-12.829 11.86-8.923C11.21-5.017 9.25-3.715 5.35-3.715C2.74-3.715 0.14-6.096 0.14-8.923C0.14-19.34 11.21-40.173 32.69-40.173C54.18-40.173 56.13-21.293 62.64-21.293C69.15-21.293 71.1-40.173 92.59-40.173C114.07-40.173 125.14-19.34 125.14-8.923C125.14-6.096 122.54-3.715 119.93-3.715C116.03-3.715 114.07-5.017 113.42-8.923C112.77-12.829 108.21-28.454 92.59-28.454Z"/>
   <path class="monochrome-1 multicolor-1:custom hierarchical-1:primary SFSymbolsPreviewWireframe" d="M92.59-34.965C76.96-34.965 78.92-16.085 62.64-16.085C46.36-16.085 48.32-34.965 32.69-34.965C17.07-34.965 12.51-19.34 11.86-15.434C11.21-11.527 9.25-10.225 5.35-10.225C2.74-10.225 0.14-12.607 0.14-15.434C0.14-25.851 11.21-46.684 32.69-46.684C54.18-46.684 56.13-27.804 62.64-27.804C69.15-27.804 71.1-46.684 92.59-46.684C114.07-46.684 125.14-25.851 125.14-15.434C125.14-12.607 122.54-10.225 119.93-10.225C116.03-10.225 114.07-11.527 113.42-15.434C112.77-19.34 108.21-34.965 92.59-34.965Z"/>
   <path class="monochrome-2 multicolor-2:custom hierarchical-2:primary SFSymbolsPreviewWireframe" d="M92.59-40.173C76.96-40.173 78.92-21.293 62.64-21.293C46.36-21.293 48.32-40.173 32.69-40.173C17.07-40.173 12.51-24.548 11.86-20.642C11.21-16.736 9.25-15.433 5.35-15.433C2.74-15.433 0.14-17.815 0.14-20.642C0.14-31.059 11.21-51.892 32.69-51.892C54.18-51.892 56.13-33.012 62.64-33.012C69.15-33.012 71.1-51.892 92.59-51.892C114.07-51.892 125.14-31.059 125.14-20.642C125.14-17.815 122.54-15.433 119.93-15.433C116.03-15.433 114.07-16.736 113.42-20.642C112.77-24.548 108.21-40.173 92.59-40.173Z"/>
   <path class="monochrome-3 multicolor-3:custom hierarchical-3:primary SFSymbolsPreviewWireframe" d="M92.59-45.382C76.96-45.382 78.92-26.502 62.64-26.502C46.36-26.502 48.32-45.382 32.69-45.382C17.07-45.382 12.51-29.757 11.86-25.851C11.21-21.944 9.25-20.642 5.35-20.642C2.74-20.642 0.14-23.023 0.14-25.851C0.14-36.267 11.21-57.101 32.69-57.101C54.18-57.101 56.13-38.22 62.64-38.22C69.15-38.22 71.1-57.101 92.59-57.101C114.07-57.101 125.14-36.267 125.14-25.851C125.14-23.023 122.54-20.642 119.93-20.642C116.03-20.642 114.07-21.944 113.42-25.851C112.77-29.757 108.21-45.382 92.59-45.382Z"/>
   <path class="monochrome-4 multicolor-4:custom hierarchical-4:primary SFSymbolsPreviewWireframe" d="M92.59-50.59C76.96-50.59 78.92-31.71 62.64-31.71C46.36-31.71 48.32-50.59 32.69-50.59C17.07-50.59 12.51-34.965 11.86-31.059C11.21-27.152 9.25-25.85 5.35-25.85C2.74-25.85 0.14-28.232 0.14-31.059C0.14-41.476 11.21-62.309 32.69-62.309C54.18-62.309 56.13-43.429 62.64-43.429C69.15-43.429 71.1-62.309 92.59-62.309C114.07-62.309 125.14-41.476 125.14-31.059C125.14-28.232 122.54-25.85 119.93-25.85C116.03-25.85 114.07-27.152 113.42-31.059C112.77-34.965 108.21-50.59 92.59-50.59Z"/>
   <path class="monochrome-5 multicolor-5:custom hierarchical-5:secondary SFSymbolsPreviewWireframe" d="M92.59-54.496C76.96-54.496 78.92-35.616 62.64-35.616C46.36-35.616 48.32-54.496 32.69-54.496C17.07-54.496 12.51-38.871 11.86-34.965C11.21-31.059 9.25-29.757 5.35-29.757C2.74-29.757 0.14-32.138 0.14-34.965C0.14-45.382 11.21-66.215 32.69-66.215C54.18-66.215 56.13-47.335 62.64-47.335C69.15-47.335 71.1-66.215 92.59-66.215C114.07-66.215 125.14-45.382 125.14-34.965C125.14-32.138 122.54-29.757 119.93-29.757C116.03-29.757 114.07-31.059 113.42-34.965C112.77-38.871 108.21-54.496 92.59-54.496Z"/>
   <path class="monochrome-6 multicolor-6:custom hierarchical-6:secondary SFSymbolsPreviewWireframe" d="M62.64-36.732C58.72-36.732 55.94-37.904 53.71-39.661C51.53-41.374 49.88-43.646 48.21-45.946C48.16-46.008 48.12-46.07 48.07-46.132C46.36-48.49 44.61-50.863 42.24-52.643C39.86-54.427 36.87-55.614 32.69-55.614C24.34-55.614 18.88-51.559 15.5-46.953C12.13-42.362 10.82-37.218 10.74-34.983C10.16-33.295 9.65-32.276 8.87-31.672C8.1-31.069 7.04-30.868 5.35-30.868C4.08-30.868 3.12-31.388 2.45-32.159C1.77-32.93 1.38-33.955 1.26-34.969C1.51-39.898 4.27-47.334 9.52-53.54C14.76-59.746 22.49-64.713 32.69-64.713C43.14-64.713 48.72-60.109 52.63-55.5C53.61-54.346 54.48-53.192 55.31-52.108L55.31-52.098C56.13-51.019 56.9-50.008 57.66-49.141C59.18-47.402 60.71-46.217 62.64-46.217C64.57-46.217 66.1-47.402 67.62-49.141C68.38-50.008 69.15-51.019 69.97-52.098L69.97-52.108C70.8-53.192 71.67-54.346 72.65-55.5C76.56-60.109 82.14-64.713 92.59-64.713C102.79-64.713 110.52-59.746 115.76-53.54C121.01-47.334 123.77-39.898 124.02-34.969C123.9-33.955 123.51-32.93 122.83-32.159C122.16-31.388 121.2-30.868 119.93-30.868C118.24-30.868 117.18-31.069 116.41-31.672C115.63-32.276 115.12-33.295 114.54-34.983C114.46-37.218 113.15-42.362 109.78-46.953C106.4-51.559 100.94-55.614 92.59-55.614C88.41-55.614 85.42-54.427 83.04-52.643C80.67-50.863 78.92-48.49 77.21-46.132L77.07-45.946C75.4-43.646 73.75-41.374 71.57-39.661C69.34-37.904 66.56-36.732 62.64-36.732Z"/>
  </g>
  <g id="Ultralight-S" transform="matrix(1 0 0 1 498.017 696)">
   <path class="monochrome-0 multicolor-0:custom hierarchical-0:primary SFSymbolsPreviewWireframe" d="M90.952-29.058C75.577-29.059 77.499-10.48 61.483-10.48C45.467-10.48 47.389-29.059 32.014-29.058C16.639-29.059 12.155-13.683 11.514-9.84C10.874-5.996 8.952-4.715 5.108-4.715C2.545-4.715-0.017-7.058-0.017-9.84C-0.017-20.09 10.874-40.59 32.014-40.59C53.155-40.59 55.077-22.012 61.483-22.012C67.889-22.012 69.811-40.59 90.952-40.59C112.092-40.59 122.983-20.09 122.983-9.84C122.983-7.058 120.421-4.715 117.858-4.715C114.014-4.715 112.092-5.996 111.452-9.84C110.811-13.683 106.327-29.059 90.952-29.058Z"/>
   <path class="monochrome-1 multicolor-1:custom hierarchical-1:primary SFSymbolsPreviewWireframe" d="M90.952-35.465C75.577-35.465 77.499-16.887 61.483-16.887C45.467-16.887 47.389-35.465 32.014-35.465C16.639-35.465 12.155-20.09 11.514-16.246C10.874-12.402 8.952-11.121 5.108-11.121C2.545-11.121-0.017-13.464-0.017-16.246C-0.017-26.496 10.874-46.996 32.014-46.996C53.155-46.996 55.077-28.418 61.483-28.418C67.889-28.418 69.811-46.996 90.952-46.996C112.092-46.996 122.983-26.496 122.983-16.246C122.983-13.464 120.421-11.121 117.858-11.121C114.014-11.121 112.092-12.402 111.452-16.246C110.811-20.09 106.327-35.465 90.952-35.465Z"/>
   <path class="monochrome-2 multicolor-2:custom hierarchical-2:primary SFSymbolsPreviewWireframe" d="M90.952-40.59C75.577-40.59 77.499-22.012 61.483-22.012C45.467-22.012 47.389-40.59 32.014-40.59C16.639-40.59 12.155-25.215 11.514-21.371C10.874-17.527 8.952-16.246 5.108-16.246C2.545-16.246-0.017-18.589-0.017-21.371C-0.017-31.621 10.874-52.121 32.014-52.121C53.155-52.121 55.077-33.543 61.483-33.543C67.889-33.543 69.811-52.121 90.952-52.121C112.092-52.121 122.983-31.621 122.983-21.371C122.983-18.589 120.421-16.246 117.858-16.246C114.014-16.246 112.092-17.527 111.452-21.371C110.811-25.215 106.327-40.59 90.952-40.59Z"/>
   <path class="monochrome-3 multicolor-3:custom hierarchical-3:primary SFSymbolsPreviewWireframe" d="M90.952-45.715C75.577-45.715 77.499-27.137 61.483-27.137C45.467-27.137 47.389-45.715 32.014-45.715C16.639-45.715 12.155-30.34 11.514-26.497C10.874-22.653 8.952-21.372 5.108-21.372C2.545-21.372-0.017-23.715-0.017-26.497C-0.017-36.747 10.874-57.247 32.014-57.247C53.155-57.247 55.077-38.668 61.483-38.668C67.889-38.668 69.811-57.247 90.952-57.247C112.092-57.247 122.983-36.747 122.983-26.497C122.983-23.715 120.421-21.372 117.858-21.372C114.014-21.372 112.092-22.653 111.452-26.497C110.811-30.34 106.327-45.715 90.952-45.715Z"/>
   <path class="monochrome-4 multicolor-4:custom hierarchical-4:primary SFSymbolsPreviewWireframe" d="M90.952-50.84C75.577-50.84 77.499-32.262 61.483-32.262C45.467-32.262 47.389-50.84 32.014-50.84C16.639-50.84 12.155-35.465 11.514-31.621C10.874-27.777 8.952-26.496 5.108-26.496C2.545-26.496-0.017-28.839-0.017-31.621C-0.017-41.871 10.874-62.371 32.014-62.371C53.155-62.371 55.077-43.793 61.483-43.793C67.889-43.793 69.811-62.371 90.952-62.371C112.092-62.371 122.983-41.871 122.983-31.621C122.983-28.839 120.421-26.496 117.858-26.496C114.014-26.496 112.092-27.777 111.452-31.621C110.811-35.465 106.327-50.84 90.952-50.84Z"/>
   <path class="monochrome-5 multicolor-5:custom hierarchical-5:secondary SFSymbolsPreviewWireframe" d="M90.952-54.684C75.577-54.684 77.499-36.106 61.483-36.106C45.467-36.106 47.389-54.684 32.014-54.684C16.639-54.684 12.155-39.309 11.514-35.465C10.874-31.621 8.952-30.34 5.108-30.34C2.545-30.34-0.017-32.683-0.017-35.465C-0.017-45.715 10.874-66.215 32.014-66.215C53.155-66.215 55.077-47.637 61.483-47.637C67.889-47.637 69.811-66.215 90.952-66.215C112.092-66.215 122.983-45.715 122.983-35.465C122.983-32.683 120.421-30.34 117.858-30.34C114.014-30.34 112.092-31.621 111.452-35.465C110.811-39.309 106.327-54.684 90.952-54.684Z"/>
   <path class="monochrome-6 multicolor-6:custom hierarchical-6:secondary SFSymbolsPreviewWireframe" d="M61.483-37.205C57.626-37.205 54.889-38.358 52.696-40.087C50.556-41.773 48.931-44.008 47.285-46.271C47.24-46.332 47.196-46.393 47.152-46.454C45.463-48.775 43.738-51.11 41.406-52.862C39.071-54.617 36.13-55.785 32.014-55.785C23.791-55.785 18.423-51.795 15.096-47.262C11.781-42.744 10.49-37.683 10.414-35.483C9.846-33.822 9.339-32.82 8.576-32.226C7.813-31.633 6.777-31.435 5.108-31.435C3.857-31.435 2.916-31.946 2.254-32.705C1.592-33.463 1.208-34.472 1.083-35.469C1.335-40.319 4.047-47.636 9.21-53.742C14.373-59.849 21.98-64.735 32.014-64.735C42.296-64.735 47.785-60.205 51.633-55.67C52.596-54.535 53.457-53.4 54.265-52.333L54.272-52.323C55.077-51.261 55.83-50.266 56.58-49.413C58.081-47.702 59.585-46.535 61.483-46.535C63.381-46.535 64.885-47.702 66.386-49.413C67.136-50.266 67.889-51.261 68.694-52.323L68.701-52.333C69.509-53.4 70.37-54.535 71.333-55.67C75.181-60.205 80.67-64.735 90.952-64.735C100.986-64.735 108.593-59.849 113.756-53.742C118.919-47.636 121.631-40.319 121.883-35.469C121.758-34.472 121.374-33.463 120.712-32.705C120.05-31.946 119.109-31.435 117.858-31.435C116.189-31.435 115.153-31.633 114.39-32.226C113.627-32.82 113.12-33.822 112.552-35.483C112.476-37.683 111.185-42.744 107.87-47.262C104.543-51.795 99.175-55.785 90.952-55.785C86.836-55.785 83.895-54.617 81.56-52.862C79.228-51.11 77.503-48.775 75.814-46.454L75.681-46.271C74.035-44.008 72.41-41.773 70.27-40.087C68.077-38.358 65.34-37.205 61.483-37.205Z"/>
  </g>
 </g>
</svg>
